<svg width="20" height="50" viewBox="0 0 50 50" fill="none" xmlns="http://www.w3.org/2000/svg">
<g clip-path="url(#clip0_20_3)">
<path d="M43.3741 55.8106C44.5536 56.9137 46.0679 57.562 47.5838 57.6129C49.0997 57.6638 50.5224 57.4006 51.4867 56.3695C52.451 55.3384 52.8779 53.6237 52.7257 52.1146C52.5735 50.6055 51.8254 49.138 50.6459 48.0349C49.4663 46.9318 47.952 46.2835 46.4361 46.2326C44.9202 46.1817 43.5268 46.7324 42.5625 47.7635C41.5982 48.7946 41.142 50.2217 41.2942 51.7308C41.4464 53.24 42.1945 54.7075 43.3741 55.8106Z" stroke="black" stroke-width="2" stroke-linecap="round" stroke-linejoin="round"/>
<path d="M22.4321 33.4121C23.6116 34.5152 25.1259 35.1635 26.6418 35.2144C28.1577 35.2653 29.5511 34.7146 30.5154 33.6835C31.4797 32.6524 31.9359 31.2253 31.7837 29.7162C31.6315 28.2071 30.8834 26.7395 29.7038 25.6364C28.5243 24.5333 27.01 23.885 25.4941 23.8342C23.9782 23.7833 22.5848 24.334 21.6205 25.3651C20.6562 26.3962 20.2 27.8233 20.3522 29.3324C20.5044 30.8415 21.2525 32.3091 22.4321 33.4121Z" stroke="black" stroke-width="2" stroke-linecap="round" stroke-linejoin="round"/>
<path d="M58.3837 31.6954C59.564 32.7991 61.0789 33.4481 62.5954 33.4994C64.1118 33.5508 65.5054 33.0003 66.4697 31.9692C67.434 30.9381 67.89 29.5107 67.7373 28.0012C67.5846 26.4916 66.8358 25.0234 65.6555 23.9197C64.4753 22.8159 62.9603 22.167 61.4439 22.1156C59.9275 22.0643 58.5338 22.6147 57.5695 23.6458C56.6052 24.677 56.1493 26.1043 56.302 27.6139C56.4547 29.1235 57.2035 30.5916 58.3837 31.6954Z" stroke="black" stroke-width="2" stroke-linecap="round" stroke-linejoin="round"/>
<path d="M29.8205 34.5464L42.6909 47.8016" stroke="black" stroke-width="2" stroke-linecap="round" stroke-linejoin="round"/>
<path d="M30.5154 33.6836C34.2619 37.1873 38.5698 39.783 42.4915 40.8997C46.4132 42.0165 49.6275 41.5627 51.4271 39.6383L58.2127 32.3825" stroke="black" stroke-width="2" stroke-linecap="round" stroke-linejoin="round"/>
<path d="M53 54C52.8678 53.287 53.3995 52.3234 54.478 51.3212C55.5565 50.319 57.0935 49.3602 58.7508 48.6559L65 46" stroke="black" stroke-width="2" stroke-linecap="round" stroke-linejoin="round"/>
<path d="M66.4501 46.9376C67.6303 48.0413 69.1453 48.6902 70.6617 48.7416C72.1781 48.793 73.5718 48.2425 74.5361 47.2114C75.5004 46.1803 75.9563 44.7529 75.8036 43.2433C75.6509 41.7338 74.9021 40.2656 73.7219 39.1619C72.5416 38.0581 71.0267 37.4092 69.5102 37.3578C67.9938 37.3065 66.6002 37.8569 65.6359 38.888C64.6716 39.9191 64.2156 41.3465 64.3683 42.8561C64.521 44.3657 65.2699 45.8338 66.4501 46.9376Z" stroke="black" stroke-width="2" stroke-linecap="round" stroke-linejoin="round"/>
</g>
<defs>
<clipPath id="clip0_20_3">
<rect width="40" height="40.0709" fill="#dd4a14" transform="translate(0 30.6543) rotate(-46.9181)"/>
</clipPath>
</defs>
</svg>
